<?xml version="1.0" encoding="iso-8859-1"?>
<!-- Generator: Adobe Illustrator 19.0.0, SVG Export Plug-In . SVG Version: 6.00 Build 0)  -->
<svg version="1.1" id="Capa_1" xmlns="http://www.w3.org/2000/svg" xmlns:xlink="http://www.w3.org/1999/xlink" x="0px" y="0px"
	 viewBox="0 0 512 512" style="enable-background:new 0 0 512 512;" xml:space="preserve">
<path style="fill:#966464;" d="M255.999,328.145c-61.575-6.158-113.688-29.92-134.544-40.609c-5.492-2.815-7.949-9.268-5.686-15.009
	c6.855-17.392,19.988-55.1,19.988-88.672h240.484c0,33.573,13.133,71.281,19.988,88.672c2.263,5.742-0.193,12.194-5.686,15.009
	C369.686,298.225,317.574,321.988,255.999,328.145z"/>
<path style="fill:#EBC9A0;" d="M399.466,357.263l-70.911-23.637c-9.82-3.273-16.444-12.463-16.444-22.814v-38.78H199.885v38.78
	c0,10.351-6.624,19.541-16.444,22.814l-70.911,23.637c-19.64,6.547-32.887,24.926-32.887,45.629v85.576
	c0,8.854,7.178,16.032,16.032,16.032H416.32c8.854,0,16.032-7.178,16.032-16.032v-85.576
	C432.354,382.19,419.107,363.81,399.466,357.263z"/>
<path style="fill:#96C3F0;" d="M399.466,357.263l-57.101-19.033c-15.634,31.97-48.381,54.044-86.367,54.044
	s-70.733-22.074-86.367-54.044l-57.1,19.033c-19.64,6.546-32.887,24.926-32.887,45.629v85.576c0,8.854,7.178,16.032,16.032,16.032
	h320.645c8.854,0,16.032-7.178,16.032-16.032v-85.576C432.354,382.189,419.105,363.81,399.466,357.263z"/>
<path style="fill:#7DA5D7;" d="M146.654,345.889c18.948,41.52,60.726,70.433,109.345,70.433s90.397-28.913,109.345-70.433
	l-22.978-7.659c-15.634,31.97-48.381,54.044-86.367,54.044s-70.733-22.074-86.367-54.044L146.654,345.889z"/>
<path style="fill:#D7AF87;" d="M255.999,328.145c20.381,0,39.554-5.11,56.373-14.059c-0.147-1.077-0.26-2.165-0.26-3.274v-38.78
	H199.885v38.78c0,1.11-0.114,2.197-0.26,3.274C216.444,323.035,235.617,328.145,255.999,328.145z"/>
<path style="fill:#F5DCB4;" d="M352.193,159.806H159.805c-13.282,0-24.048,10.767-24.048,24.048
	c0,13.282,10.767,24.048,24.048,24.048c0,53.126,43.067,96.194,96.194,96.194s96.194-43.068,96.194-96.194
	c13.282,0,24.048-10.767,24.048-24.048S365.474,159.806,352.193,159.806z"/>
<path style="fill:#EBC9A0;" d="M352.193,159.806H159.805c-13.282,0-24.048,10.767-24.048,24.048h240.484
	C376.241,170.573,365.474,159.806,352.193,159.806z"/>
<path style="fill:#FFD164;" d="M255.999,15.516L255.999,15.516c-70.835,0-128.258,57.423-128.258,128.258v16.032h256.516v-16.032
	C384.257,72.939,326.833,15.516,255.999,15.516z"/>
<path style="fill:#FFC350;" d="M253.327,15.546c-13.071,0.295-26.925,2.256-40.993,7.609
	c-51.026,19.416-84.594,62.252-84.594,127.811v8.841h64.129v-16.033c0-48.028,26.437-89.795,65.531-111.735
	C255.21,23.165,255.518,24.419,253.327,15.546z"/>
<g>
	<path style="fill:#FFE17D;" d="M264.014,7.5h-16.032c-4.427,0-8.016,3.589-8.016,8.016v144.29h32.065V15.516
		C272.031,11.089,268.441,7.5,264.014,7.5z"/>
	<path style="fill:#FFE17D;" d="M337.764,34.755l-14.9-11.175c-4.43-3.323-10.752-0.161-10.752,5.376v130.851h32.065V47.581
		C344.176,42.534,341.801,37.783,337.764,34.755z"/>
	<path style="fill:#FFE17D;" d="M189.133,23.58l-14.9,11.175c-4.037,3.028-6.413,7.78-6.413,12.826v112.226h32.065V28.956
		C199.885,23.418,193.564,20.257,189.133,23.58z"/>
</g>
<polygon style="fill:#FFD164;" points="167.822,338.833 135.757,349.522 135.757,464.419 167.822,464.419 "/>
<path style="fill:#FFC350;" d="M167.822,377.587v-38.754l-21.168,7.056C151.996,357.596,159.207,368.25,167.822,377.587z"/>
<polygon style="fill:#FFD164;" points="344.176,338.833 376.241,349.522 376.241,464.419 344.176,464.419 "/>
<path style="fill:#FFC350;" d="M344.176,377.587v-38.754l21.168,7.056C360.001,357.596,352.789,368.25,344.176,377.587z"/>
<path style="fill:#FFE17D;" d="M352.193,440.371H159.805c-13.282,0-24.048,10.767-24.048,24.048V504.5h240.484v-40.081
	C376.241,451.138,365.474,440.371,352.193,440.371z"/>
<path d="M255.999,255.484c17.845,0,33.084-8.365,37.921-20.816c1.5-3.861-0.414-8.207-4.275-9.707s-8.207,0.413-9.707,4.275
	c-2.839,7.306-14.453,11.248-23.94,11.248s-21.101-3.942-23.94-11.248c-1.5-3.861-5.846-5.776-9.707-4.275
	c-3.861,1.5-5.775,5.846-4.275,9.707C222.914,247.119,238.154,255.484,255.999,255.484z"/>
<path d="M167.901,464.936h-0.08c-4.142,0-7.46,3.358-7.46,7.5s3.398,7.5,7.54,7.5s7.5-3.358,7.5-7.5
	S172.043,464.936,167.901,464.936z"/>
<path d="M344.176,464.936h-0.08c-4.142,0-7.46,3.358-7.46,7.5s3.398,7.5,7.54,7.5s7.5-3.358,7.5-7.5
	S348.318,464.936,344.176,464.936z"/>
<path d="M401.837,350.148l-70.911-23.637c-3.69-1.23-6.712-3.67-8.705-6.787c33.202-7.749,59.2-19.342,72.287-25.885
	c8.535-4.268,12.465-14.56,8.946-23.432c-5.923-14.933-19.69-53.228-19.717-86.453c0-0.033,0.002-0.066,0.002-0.099
	c0-6.065-1.725-11.734-4.703-16.548h21.252c4.142,0,7.5-3.358,7.5-7.5s-3.358-7.5-7.5-7.5h-8.532v-8.532
	c0-36.573-14.211-70.647-40.085-96.313c-0.038-7.324-3.547-14.31-9.409-18.706l-14.9-11.175c-4.336-3.253-10.043-3.768-14.891-1.343
	c-1.329,0.664-2.513,1.518-3.542,2.511c-9.781-4.147-19.984-7.136-30.48-8.883C276.185,4.099,270.576,0,264.014,0h-16.032
	c-6.561,0-12.17,4.099-14.435,9.865c-10.495,1.746-20.699,4.735-30.48,8.883c-1.029-0.993-2.214-1.847-3.542-2.511
	c-4.849-2.425-10.555-1.91-14.891,1.343l-14.9,11.175c-5.862,4.396-9.371,11.382-9.409,18.706
	c-25.874,25.665-40.084,59.737-40.084,96.313v8.532h-8.532c-4.142,0-7.5,3.358-7.5,7.5s3.358,7.5,7.5,7.5h21.252
	c-2.979,4.814-4.703,10.483-4.703,16.548c0,33.249-13.79,71.605-19.718,86.553c-3.519,8.872,0.411,19.164,8.946,23.432
	c12.945,6.471,39.003,18.117,72.29,25.886c-1.993,3.116-5.014,5.556-8.704,6.786l-70.911,23.637
	c-22.738,7.58-38.016,28.776-38.016,52.744V504.5c0,4.142,3.358,7.5,7.5,7.5s7.5-3.358,7.5-7.5V402.892
	c0-17.501,11.155-32.979,27.759-38.514l13.354-4.451V504.5c0,4.142,3.358,7.5,7.5,7.5s7.5-3.358,7.5-7.5v-40.081
	c0-9.125,7.423-16.548,16.548-16.548h192.387c9.125,0,16.548,7.423,16.548,16.548V504.5c0,4.142,3.358,7.5,7.5,7.5
	s7.5-3.358,7.5-7.5V359.927l13.354,4.451c16.604,5.535,27.759,21.012,27.759,38.514V504.5c0,4.142,3.358,7.5,7.5,7.5
	s7.5-3.358,7.5-7.5V402.892C439.854,378.924,424.577,357.728,401.837,350.148z M387.801,280.423
	c-12.374,6.187-36.867,17.107-68.189,24.501v-15.187c22.736-17.713,37.93-44.676,39.87-75.183c4.143-0.984,7.968-2.792,11.302-5.232
	c3.971,26.44,12.854,51.806,18.729,66.617C390.186,277.636,389.434,279.606,387.801,280.423z M376.757,143.774v8.532h-25.081V70.042
	C367.958,91.038,376.757,116.632,376.757,143.774z M333.264,40.755c2.137,1.603,3.413,4.154,3.413,6.826v104.726h-17.064V30.516
	L333.264,40.755z M247.982,15h16.032c0.285,0,0.516,0.231,0.516,0.516v24.049c0,4.142,3.358,7.5,7.5,7.5s7.5-3.358,7.5-7.5V25.326
	c8.629,1.703,17.026,4.33,25.081,7.878v119.102h-0.512c-0.003,0-0.006,0-0.01,0s-0.006,0-0.01,0H279.53V71.629
	c0-4.142-3.358-7.5-7.5-7.5s-7.5,3.358-7.5,7.5v80.678h-17.064V15.516C247.466,15.231,247.698,15,247.982,15z M207.905,152.307
	c-0.003,0-0.006,0-0.01,0s-0.006,0-0.01,0h-0.5V33.204c8.056-3.548,16.453-6.175,25.081-7.878v126.98h-24.561V152.307z
	 M178.733,40.755l13.652-10.239v121.791h-17.064V47.581C175.322,44.909,176.598,42.357,178.733,40.755z M135.241,143.774
	c0-27.144,8.8-52.738,25.081-73.733v82.265h-25.081V143.774z M200.396,167.307v16.548c0,4.142,3.358,7.5,7.5,7.5s7.5-3.358,7.5-7.5
	v-16.548h81.194v16.548c0,4.142,3.358,7.5,7.5,7.5s7.5-3.358,7.5-7.5v-16.548h40.602c9.114,0,16.528,7.405,16.547,16.515
	c0,0.011-0.002,0.022-0.002,0.034c0,0.018,0.001,0.037,0.001,0.055c-0.03,9.099-7.439,16.493-16.546,16.493
	c-4.142,0-7.5,3.358-7.5,7.5c0,48.906-39.788,88.693-88.693,88.693s-88.693-39.788-88.693-88.693c0-4.142-3.358-7.5-7.5-7.5
	c-9.125,0-16.548-7.423-16.548-16.548s7.423-16.548,16.548-16.548L200.396,167.307L200.396,167.307z M122.481,275.938
	c5.874-14.811,14.758-40.178,18.729-66.619c3.335,2.442,7.161,4.251,11.305,5.234c1.94,30.507,17.134,57.47,39.87,75.183v15.198
	c-31.41-7.416-55.953-18.392-68.193-24.511C122.559,279.606,121.808,277.637,122.481,275.938z M185.814,340.742
	c12.903-4.301,21.572-16.329,21.572-29.93v-11.34c14.508,7.733,31.056,12.125,48.613,12.125s34.104-4.392,48.613-12.125v11.34
	c0,13.601,8.669,25.628,21.572,29.93l5.382,1.794c-16.098,26.215-44.463,42.239-75.567,42.239
	c-31.159,0-59.473-16.012-75.565-42.239L185.814,340.742z M143.257,437.574v-82.647l17.064-5.688v59.068c0,4.142,3.358,7.5,7.5,7.5
	s7.5-3.358,7.5-7.5v-47.019c19.437,24.144,48.785,38.487,80.677,38.487c31.84,0,61.226-14.361,80.677-38.505v71.601H159.806
	C153.74,432.871,148.072,434.596,143.257,437.574z M368.741,437.574c-4.814-2.979-10.483-4.703-16.548-4.703h-0.516v-83.632
	l17.064,5.688V437.574z"/>
<g>
</g>
<g>
</g>
<g>
</g>
<g>
</g>
<g>
</g>
<g>
</g>
<g>
</g>
<g>
</g>
<g>
</g>
<g>
</g>
<g>
</g>
<g>
</g>
<g>
</g>
<g>
</g>
<g>
</g>
</svg>
